<svg xmlns="http://www.w3.org/2000/svg" width="117" height="24" fill="none"><path fill="#737373" d="M9.693 1.188a1.849 1.849 0 0 1 2.614 0l2.615 2.615a1.849 1.849 0 0 1 0 2.614l-2.615 2.615a1.849 1.849 0 0 1-2.614 0L7.078 6.417a1.849 1.849 0 0 1 0-2.614l2.615-2.615zm6.537 6.537a1.849 1.849 0 0 1 2.614 0l2.614 2.614a1.849 1.849 0 0 1 0 2.615l-2.614 2.614a1.849 1.849 0 0 1-2.615 0l-2.614-2.614a1.849 1.849 0 0 1 0-2.615l2.614-2.614zm-13.074 0a1.849 1.849 0 0 1 2.615 0l2.614 2.614a1.849 1.849 0 0 1 0 2.615l-2.614 2.614a1.849 1.849 0 0 1-2.615 0L.542 12.954a1.849 1.849 0 0 1 0-2.615l2.614-2.614zm6.537 6.536a1.849 1.849 0 0 1 2.614 0l2.615 2.615a1.849 1.849 0 0 1 0 2.614l-2.615 2.615a1.849 1.849 0 0 1-2.614 0L7.078 19.49a1.849 1.849 0 0 1 0-2.614l2.615-2.615zm24.219 4.084c-1.236 0-2.316-.276-3.24-.828a5.813 5.813 0 0 1-2.16-2.34c-.516-1.008-.774-2.184-.774-3.528 0-1.344.264-2.52.792-3.529.528-1.008 1.26-1.794 2.196-2.358.948-.564 2.04-.846 3.276-.846.984 0 1.872.186 2.664.558.792.36 1.452.87 1.98 1.53s.87 1.434 1.026 2.322h-1.89c-.24-.852-.702-1.518-1.386-1.998-.684-.48-1.5-.72-2.448-.72-.876 0-1.644.21-2.304.63-.648.408-1.152.99-1.512 1.746-.36.744-.54 1.627-.54 2.646 0 1.008.18 1.89.54 2.646.36.757.87 1.345 1.53 1.765.66.407 1.422.611 2.286.611.96 0 1.788-.233 2.484-.702a3.465 3.465 0 0 0 1.422-1.925h1.872a5.014 5.014 0 0 1-1.098 2.268 5.483 5.483 0 0 1-2.034 1.512c-.804.36-1.698.54-2.682.54zm11.729-9.073v1.548h-.756c-.804 0-1.44.235-1.908.703-.456.456-.684 1.11-.684 1.962v4.662h-1.692V9.361h1.584l.144 1.764h-.162c.12-.575.408-1.043.864-1.404.456-.372 1.026-.558 1.71-.558.156 0 .3.012.432.036.144.012.3.036.468.072zm4.069 9.09c-.852 0-1.608-.191-2.269-.575a4.186 4.186 0 0 1-1.547-1.62c-.372-.697-.558-1.5-.558-2.413 0-.923.18-1.733.54-2.43a4.241 4.241 0 0 1 1.512-1.638c.648-.396 1.398-.594 2.25-.594.84 0 1.566.18 2.178.54.623.36 1.103.864 1.44 1.513.347.648.522 1.41.522 2.286v.63l-7.542.018.036-1.135h5.814c0-.732-.222-1.32-.666-1.764-.445-.444-1.038-.665-1.782-.665-.564 0-1.05.125-1.459.377-.396.24-.702.6-.918 1.08-.204.469-.306 1.033-.306 1.693 0 1.056.24 1.872.72 2.448.48.564 1.17.846 2.07.846.66 0 1.2-.133 1.62-.396.42-.264.703-.648.846-1.152h1.584c-.215.935-.678 1.662-1.386 2.178-.707.516-1.608.774-2.7.774zm7.444 0c-.937 0-1.675-.245-2.215-.737-.528-.492-.791-1.134-.791-1.927 0-.803.287-1.446.863-1.925.576-.492 1.38-.78 2.412-.864l2.773-.216v-.252c0-.493-.09-.883-.27-1.17-.18-.3-.427-.51-.739-.63a2.703 2.703 0 0 0-1.061-.198c-.709 0-1.26.15-1.657.45-.383.287-.575.701-.575 1.241h-1.477c0-.611.157-1.146.468-1.601.313-.457.75-.81 1.315-1.063.575-.252 1.241-.378 1.997-.378.732 0 1.368.132 1.908.396a2.75 2.75 0 0 1 1.279 1.17c.312.517.468 1.17.468 1.963v5.525h-1.44l-.18-1.422c-.228.505-.624.907-1.188 1.206-.552.288-1.182.433-1.89.433zm.485-1.313c.804 0 1.434-.24 1.89-.72.456-.493.684-1.152.684-1.98v-.469l-2.25.18c-.744.072-1.284.246-1.62.522-.324.276-.486.63-.486 1.063 0 .468.157.822.468 1.061.325.229.762.343 1.314.343zm4.48-7.705h5.147v1.423h-5.148V9.344zm3.42 8.803h-1.693V6.59h1.692v11.556zm2.245 0V9.343h1.692v8.803h-1.692zm.828-10.89c-.3 0-.563-.109-.791-.325a1.117 1.117 0 0 1-.325-.792c0-.312.109-.576.325-.792.228-.216.492-.324.791-.324.313 0 .577.108.793.324.216.216.323.48.323.792 0 .3-.107.564-.323.792-.216.216-.48.324-.793.324zm4.787 10.89-3.546-8.803h1.8l1.926 4.915c.156.407.294.797.414 1.17.12.36.216.671.288.935.084-.3.186-.63.306-.99.132-.36.276-.732.432-1.116l1.962-4.914h1.764l-3.672 8.803h-1.674zm13.918 0H79.38V5.131h7.938v1.62h-6.984l.81-.702v4.77h5.562v1.566h-5.562v4.86l-.81-.737h6.984v1.637zm4.796.216c-.852 0-1.584-.192-2.196-.576a3.947 3.947 0 0 1-1.422-1.639c-.324-.695-.486-1.487-.486-2.375 0-.9.168-1.698.504-2.394a4.003 4.003 0 0 1 1.44-1.675c.624-.408 1.368-.612 2.232-.612.684 0 1.29.144 1.818.432.54.276.96.69 1.26 1.243V4.898h1.674v13.248h-1.512l-.144-1.602a3.025 3.025 0 0 1-1.278 1.35c-.552.313-1.182.469-1.89.469zm.342-1.53c.576 0 1.068-.132 1.476-.396.42-.265.744-.63.972-1.099.228-.467.342-1.007.342-1.62 0-.611-.114-1.146-.342-1.601a2.621 2.621 0 0 0-.972-1.099c-.408-.264-.9-.396-1.476-.396s-1.068.139-1.476.415a2.54 2.54 0 0 0-.936 1.097c-.216.457-.324.984-.324 1.585 0 .612.108 1.152.324 1.62.216.467.528.833.936 1.097.408.265.9.396 1.476.396zm5.365-3.312c0-.829.168-1.573.504-2.232a3.954 3.954 0 0 1 1.44-1.603c.624-.396 1.362-.594 2.214-.594.792 0 1.47.192 2.034.576.564.373.966.895 1.206 1.567l-.216.234.18-2.125h1.512v8.443c0 .924-.18 1.722-.54 2.393a3.819 3.819 0 0 1-1.53 1.585c-.66.372-1.44.558-2.34.558-1.2 0-2.184-.319-2.952-.954-.768-.636-1.236-1.512-1.404-2.628h1.692c.108.648.396 1.151.864 1.512.468.36 1.068.54 1.8.54.828 0 1.488-.252 1.98-.756.504-.492.756-1.159.756-1.998v-2.485l.216.235a2.963 2.963 0 0 1-1.242 1.566c-.6.372-1.296.558-2.088.558-.84 0-1.566-.192-2.178-.576a4.028 4.028 0 0 1-1.422-1.585c-.324-.66-.486-1.404-.486-2.232zm1.692-.037c0 .553.108 1.05.324 1.495.228.444.54.798.936 1.062.408.264.882.395 1.422.395.576 0 1.068-.125 1.476-.378.408-.252.72-.6.936-1.043.228-.445.342-.955.342-1.53 0-.576-.108-1.08-.324-1.512a2.492 2.492 0 0 0-.936-1.027c-.408-.252-.9-.377-1.476-.377-.564 0-1.05.131-1.458.395a2.632 2.632 0 0 0-.918 1.063 3.215 3.215 0 0 0-.324 1.458zm12.422 4.879c-.852 0-1.608-.192-2.268-.576a4.186 4.186 0 0 1-1.548-1.62c-.372-.697-.558-1.5-.558-2.413 0-.923.18-1.733.54-2.43a4.241 4.241 0 0 1 1.512-1.638c.648-.396 1.398-.594 2.25-.594.84 0 1.566.18 2.178.54.624.36 1.104.864 1.44 1.513.348.648.522 1.41.522 2.286v.63l-7.542.018.036-1.135h5.814c0-.732-.222-1.32-.666-1.764-.444-.444-1.038-.665-1.782-.665-.564 0-1.05.125-1.458.377-.396.24-.702.6-.918 1.08-.204.469-.306 1.033-.306 1.693 0 1.056.24 1.872.72 2.448.48.564 1.17.846 2.07.846.66 0 1.2-.133 1.62-.396.42-.264.702-.648.846-1.152h1.584c-.216.935-.678 1.662-1.386 2.178-.708.516-1.608.774-2.7.774z"/></svg>